# xmcd
#
# Track frame offsets:
#	183
#	17683
#	38690
#	57638
#	81558
#	105893
#	129088
#	149370
#	176690
#	196040
#	216808
#	250808
#	266683
#	282510
#
# Disc length: 4101
#
# Revision: 2
# Processed by: cddbd v1.5.1PL0 Copyright (c) Steve Scherf et al.
# Submitted via: CDCOPY 4.744
# Normalized: r1:DSETVAR1,TDELIM( - )
#
DISCID=c610030e
DTITLE=Various Artist - In love with soul
DYEAR=1900
DGENRE=
TTITLE0=Pointer Sisters - Slow hand
TTITLE1=Amii Stewart - Friends
TTITLE2=Glen Goldsmith - Dreaming
TTITLE3=Keni Burke - Rising to the top (Give it all you got)
TTITLE4=Hi Gloss - You'll never know
TTITLE5=Patrice Rushen - Somewhere
TTITLE6=Odyssey - If you're lovin for a way out
TTITLE7=Imagination - Body talk
TTITLE8=Angela Bofill - This time I'll be sweeter
TTITLE9=Raydio - Jack and Jill
TTITLE10=Phylis Hyman - You know how to love me
TTITLE11=Main Ingredient - Just don't want to be lonely
TTITLE12=The Delfonics - Didn't I (Blow your mind this time)
TTITLE13=George Benson - The greatest love of all
EXTD=
EXTT0=
EXTT1=
EXTT2=
EXTT3=
EXTT4=
EXTT5=
EXTT6=
EXTT7=
EXTT8=
EXTT9=
EXTT10=
EXTT11=
EXTT12=
EXTT13=
PLAYORDER=
